<svg width="86" height="27" viewBox="0 0 86 27" fill="none" xmlns="http://www.w3.org/2000/svg">
<path d="M7.176 2.448C8.648 2.448 9.96 2.64 11.112 3.024C12.264 3.38667 13.224 3.92 13.992 4.624C14.7813 5.30667 15.3787 6.13867 15.784 7.12C16.1893 8.08 16.392 9.168 16.392 10.384C16.392 11.344 16.2427 12.304 15.944 13.264C15.6667 14.224 15.1973 15.0987 14.536 15.888C13.896 16.6773 13.0427 17.3173 11.976 17.808C10.9093 18.2773 9.58667 18.512 8.008 18.512H4.68V26H0.0400002V2.448H7.176ZM7.976 14.032C8.68 14.032 9.26667 13.9147 9.736 13.68C10.2053 13.4453 10.568 13.1467 10.824 12.784C11.1013 12.4213 11.2933 12.048 11.4 11.664C11.528 11.2587 11.592 10.8853 11.592 10.544C11.592 10.288 11.5493 9.968 11.464 9.584C11.4 9.17867 11.2507 8.77333 11.016 8.368C10.7813 7.96267 10.4187 7.62133 9.928 7.344C9.45867 7.06667 8.81867 6.928 8.008 6.928H4.68V14.032H7.976ZM12.328 16.912L18.152 26H12.744L6.792 17.04L12.328 16.912ZM27.4965 26.384C25.7898 26.384 24.3392 26.064 23.1445 25.424C21.9712 24.784 21.0752 23.8987 20.4565 22.768C19.8378 21.6373 19.5285 20.336 19.5285 18.864C19.5285 17.456 19.8912 16.1867 20.6165 15.056C21.3418 13.9253 22.3125 13.0293 23.5285 12.368C24.7445 11.6853 26.0992 11.344 27.5925 11.344C29.5978 11.344 31.2405 11.9307 32.5205 13.104C33.8218 14.256 34.6645 15.9307 35.0485 18.128L24.1685 21.584L23.1765 19.152L31.0485 16.496L30.1205 16.912C29.9498 16.3573 29.6405 15.8773 29.1925 15.472C28.7658 15.0453 28.1152 14.832 27.2405 14.832C26.5792 14.832 25.9925 14.992 25.4805 15.312C24.9898 15.6107 24.6058 16.048 24.3285 16.624C24.0725 17.1787 23.9445 17.84 23.9445 18.608C23.9445 19.4827 24.1045 20.2187 24.4245 20.816C24.7445 21.392 25.1818 21.8293 25.7365 22.128C26.2912 22.4267 26.9098 22.576 27.5925 22.576C28.0832 22.576 28.5525 22.4907 29.0005 22.32C29.4698 22.1493 29.9285 21.9253 30.3765 21.648L32.3605 24.976C31.6138 25.4027 30.8032 25.744 29.9285 26C29.0752 26.256 28.2645 26.384 27.4965 26.384ZM37.44 2.448H53.312V6.928H47.584V26H42.944V6.928H37.44V2.448ZM60.7153 26.384C59.0086 26.384 57.5579 26.064 56.3633 25.424C55.1899 24.784 54.2939 23.8987 53.6753 22.768C53.0566 21.6373 52.7473 20.336 52.7473 18.864C52.7473 17.456 53.1099 16.1867 53.8353 15.056C54.5606 13.9253 55.5313 13.0293 56.7473 12.368C57.9633 11.6853 59.3179 11.344 60.8113 11.344C62.8166 11.344 64.4593 11.9307 65.7393 13.104C67.0406 14.256 67.8832 15.9307 68.2673 18.128L57.3873 21.584L56.3953 19.152L64.2673 16.496L63.3393 16.912C63.1686 16.3573 62.8593 15.8773 62.4113 15.472C61.9846 15.0453 61.3339 14.832 60.4593 14.832C59.7979 14.832 59.2113 14.992 58.6993 15.312C58.2086 15.6107 57.8246 16.048 57.5473 16.624C57.2913 17.1787 57.1633 17.84 57.1633 18.608C57.1633 19.4827 57.3233 20.2187 57.6433 20.816C57.9633 21.392 58.4006 21.8293 58.9553 22.128C59.5099 22.4267 60.1286 22.576 60.8113 22.576C61.3019 22.576 61.7713 22.4907 62.2193 22.32C62.6886 22.1493 63.1473 21.9253 63.5953 21.648L65.5793 24.976C64.8326 25.4027 64.0219 25.744 63.1473 26C62.2939 26.256 61.4833 26.384 60.7153 26.384ZM71.5228 0.751999H76.0028V26H71.5228V0.751999ZM80.6165 0.751999H85.0965V26H80.6165V0.751999Z" fill="black"/>
</svg>
